<?xml version="1.0" encoding="UTF-8"?>
<svg version="1.1" xmlns="http://www.w3.org/2000/svg" width="256" height="256">
<path d="M0 0 C3.63229699 2.69827776 6.77897597 5.83084431 10 9 C11.26118241 10.11517726 12.53143365 11.22022238 13.8125 12.3125 C18.03221206 15.98441983 22.12103111 19.79372813 26.22192383 23.59692383 C29.11329151 26.27371255 32.01871948 28.9229609 35 31.5 C39.11204293 35.05683038 43.0876962 38.75583684 47.07543945 42.45043945 C52.00664258 47.01610385 56.99306529 51.51752326 62 56 C67.87802939 61.27028483 73.72500385 66.57232185 79.53857422 71.91357422 C83.47792546 75.5298002 87.44926265 79.10882405 91.4296875 82.6796875 C94.86335693 85.779383 98.26520627 88.91315443 101.66870117 92.04589844 C104.5136606 94.65811779 107.38809325 97.22720424 110.3125 99.75 C121.70275549 109.63902935 121.70275549 109.63902935 122.2734375 114.171875 C122.58146625 121.99106636 122.58146625 121.99106636 119.75 125.5 C115.49918441 129.36437781 113.00092161 130.47441881 107.08984375 130.3203125 C101.57919623 129.47568989 97.76371759 125.89462951 94 122 C93.98786972 123.91227135 93.98786972 123.91227135 93.97549438 125.86317444 C93.89797101 137.88417333 93.81021589 149.90505991 93.71247292 161.9259119 C93.66255174 168.10577721 93.61622114 174.28562576 93.578125 180.46557617 C93.54121969 186.43084257 93.49484512 192.39596742 93.44193649 198.36111259 C93.42342049 200.63561963 93.40830225 202.91015697 93.39665604 205.18470955 C93.37974601 208.37336815 93.35069889 211.56170457 93.31884766 214.75024414 C93.31560738 216.15718285 93.31560738 216.15718285 93.31230164 217.59254456 C93.1620744 229.38467145 93.1620744 229.38467145 89.37890625 233.9609375 C88.77949219 234.42757812 88.18007812 234.89421875 87.5625 235.375 C86.66724609 236.09816406 86.66724609 236.09816406 85.75390625 236.8359375 C81.97797026 239.34201528 78.48879935 239.13236017 74.08735657 239.14717102 C73.37989971 239.15084771 72.67244285 239.1545244 71.9435479 239.1583125 C69.56693152 239.16934785 67.19035887 239.17319293 64.8137207 239.17700195 C63.11199301 239.18326677 61.41026669 239.18991358 59.70854187 239.19691467 C54.11429802 239.21795694 48.5200539 239.22831782 42.92578125 239.23828125 C40.99958977 239.24232887 39.07339844 239.24644579 37.14720726 239.25063133 C28.09698892 239.26968406 19.04677873 239.28391443 9.99654418 239.2922433 C-0.44758503 239.30201377 -10.89150219 239.32832801 -21.33555669 239.36874419 C-29.40956256 239.39891559 -37.4835077 239.41371319 -45.55756885 239.41702431 C-50.37906316 239.41937381 -55.20033096 239.42832113 -60.02176476 239.45348549 C-64.56000932 239.47678883 -69.09787861 239.48099037 -73.63616753 239.47072411 C-75.29859415 239.47022917 -76.96103938 239.47653718 -78.62340927 239.49028015 C-95.82281389 239.62447224 -95.82281389 239.62447224 -101 235 C-105.46434847 229.40177376 -105.58228028 224.46147839 -105.54589844 217.47485352 C-105.55623611 216.43995285 -105.56657379 215.40505219 -105.57722473 214.33879089 C-105.60660319 210.93533625 -105.60815091 207.53247761 -105.609375 204.12890625 C-105.62435992 201.7623532 -105.64108772 199.3958106 -105.65948486 197.02928162 C-105.70313511 190.8134411 -105.72315253 184.59774166 -105.73822021 178.3817749 C-105.75779949 172.0337287 -105.79976868 165.68583467 -105.83984375 159.33789062 C-105.91512088 146.89197404 -105.96542766 134.44609156 -106 122 C-106.93972656 122.74056641 -106.93972656 122.74056641 -107.8984375 123.49609375 C-108.71570313 124.13675781 -109.53296875 124.77742188 -110.375 125.4375 C-111.18710938 126.07558594 -111.99921875 126.71367187 -112.8359375 127.37109375 C-116.73148295 130.30330034 -120.2191653 130.64990863 -125 130 C-128.96137823 127.90719641 -131.60965068 125.76992236 -134 122 C-134.92468986 117.78513461 -134.84375607 113.72769101 -132.93359375 109.81640625 C-129.93457212 105.62431334 -126.2635819 102.26972796 -122.328125 98.97265625 C-119.52459543 96.59718237 -116.82435115 94.11700473 -114.125 91.625 C-109.63447714 87.49194916 -105.11324405 83.39580415 -100.5703125 79.3203125 C-97.65571553 76.68920217 -94.76460776 74.03347525 -91.875 71.375 C-88.63786909 68.3977736 -85.38862144 65.44047034 -82.0625 62.5625 C-77.930891 58.98062691 -73.93070073 55.26162042 -69.92041016 51.54541016 C-65.82575629 47.7536258 -61.69166993 44.00912216 -57.53515625 40.28515625 C-54.63086734 37.66726871 -51.75229225 35.02246797 -48.875 32.375 C-45.02734401 28.83621824 -41.13747745 25.35707509 -37.18359375 21.9375 C-34.86000565 19.87578319 -32.58974316 17.76393391 -30.31982422 15.64355469 C-9.74531244 -3.5498389 -9.74531244 -3.5498389 0 0 Z " fill="#FEE7BF" transform="translate(134,9)"/>
<path d="M0 0 C3.63229699 2.69827776 6.77897597 5.83084431 10 9 C11.26118241 10.11517726 12.53143365 11.22022238 13.8125 12.3125 C18.03221206 15.98441983 22.12103111 19.79372813 26.22192383 23.59692383 C29.11329151 26.27371255 32.01871948 28.9229609 35 31.5 C39.11204293 35.05683038 43.0876962 38.75583684 47.07543945 42.45043945 C52.00664258 47.01610385 56.99306529 51.51752326 62 56 C67.87802939 61.27028483 73.72500385 66.57232185 79.53857422 71.91357422 C83.47792546 75.5298002 87.44926265 79.10882405 91.4296875 82.6796875 C94.86335693 85.779383 98.26520627 88.91315443 101.66870117 92.04589844 C104.5136606 94.65811779 107.38809325 97.22720424 110.3125 99.75 C121.70275549 109.63902935 121.70275549 109.63902935 122.2734375 114.171875 C122.58146625 121.99106636 122.58146625 121.99106636 119.75 125.5 C115.49890686 129.36463012 112.99501766 130.4809606 107.08203125 130.31640625 C100.54739946 129.32333838 94.05358858 123.64522788 90.12890625 118.58984375 C87.97316027 115.9673491 85.79931241 114.08092394 83.125 112 C78.50390631 108.30065056 74.12953102 104.42416914 69.8125 100.375 C69.20873535 99.80918213 68.6049707 99.24336426 67.98291016 98.66040039 C67.39687012 98.1111792 66.81083008 97.56195801 66.20703125 96.99609375 C61.5360668 92.61883286 56.70252459 88.4485711 51.828125 84.30078125 C44.98481521 78.46981787 38.26016783 72.54591666 31.65625 66.4453125 C27.13701153 62.28495473 22.49821391 58.27314465 17.8203125 54.29296875 C10.06210029 47.68448049 2.46139455 40.94210335 -5 34 C-7.86724963 35.31467778 -10.04544591 36.75626529 -12.375 38.875 C-15.53156362 41.70299937 -18.72367042 44.47855237 -21.953125 47.22241211 C-28.2070801 52.53912366 -34.3147379 57.98517297 -40.34375 63.5546875 C-44.86298847 67.71504527 -49.50178609 71.72685535 -54.1796875 75.70703125 C-61.02119707 81.5344906 -67.74252108 87.45656731 -74.34375 93.5546875 C-78.88200651 97.73255305 -83.53419758 101.7665938 -88.25 105.7421875 C-89.45897771 106.76486373 -90.66729304 107.78832343 -91.875 108.8125 C-92.48150391 109.32683594 -93.08800781 109.84117188 -93.71289062 110.37109375 C-97.45254541 113.57651214 -100.95099224 116.89724507 -104.375 120.4375 C-113.90878378 130.11148649 -113.90878378 130.11148649 -121.125 130.5625 C-126.23789286 129.82030587 -129.22170262 128.00802958 -132.6328125 124.15625 C-135.08061588 120.29571438 -134.8023144 116.39615248 -134 112 C-131.36854766 106.61178807 -126.85799403 102.76771828 -122.328125 98.97265625 C-119.52459543 96.59718237 -116.82435115 94.11700473 -114.125 91.625 C-109.63447714 87.49194916 -105.11324405 83.39580415 -100.5703125 79.3203125 C-97.65571553 76.68920217 -94.76460776 74.03347525 -91.875 71.375 C-88.63786909 68.3977736 -85.38862144 65.44047034 -82.0625 62.5625 C-77.930891 58.98062691 -73.93070073 55.26162042 -69.92041016 51.54541016 C-65.82575629 47.7536258 -61.69166993 44.00912216 -57.53515625 40.28515625 C-54.63086734 37.66726871 -51.75229225 35.02246797 -48.875 32.375 C-45.02734401 28.83621824 -41.13747745 25.35707509 -37.18359375 21.9375 C-34.86000565 19.87578319 -32.58974316 17.76393391 -30.31982422 15.64355469 C-9.74531244 -3.5498389 -9.74531244 -3.5498389 0 0 Z " fill="#E05858" transform="translate(134,9)"/>
<path d="M0 0 C0.97751724 -0.0038269 1.95503448 -0.00765381 2.96217346 -0.01159668 C5.02565544 -0.01431375 7.08917197 -0.00696695 9.15258789 0.00976562 C12.30238111 0.03115476 15.44988744 0.00996849 18.59960938 -0.015625 C20.60807793 -0.01298124 22.61654507 -0.00785526 24.625 0 C25.56266708 -0.00809692 26.50033417 -0.01619385 27.46641541 -0.02453613 C33.06727983 0.05531904 36.5889033 0.57804058 40.87890625 4.53125 C44.55073471 9.89559613 45.45455721 13.61083474 45.33300781 20.03686523 C45.33359192 20.85718735 45.33417603 21.67750946 45.33477783 22.52268982 C45.33200918 25.21218389 45.30097611 27.90054527 45.26953125 30.58984375 C45.2620645 32.46313369 45.25637362 34.33643149 45.25238037 36.20973206 C45.23715822 41.12374701 45.19790604 46.03728388 45.15356445 50.95111084 C45.10531586 56.85571158 45.08706145 62.7604728 45.06375122 68.66521454 C45.02505282 77.62089149 44.94837538 86.57552088 44.87890625 95.53125 C23.75890625 95.53125 2.63890625 95.53125 -19.12109375 95.53125 C-19.28152899 74.55879925 -19.28152899 74.55879925 -19.31640625 65.609375 C-19.34030467 59.50604316 -19.3685568 53.40295168 -19.42285156 47.29980469 C-19.46635771 42.37850437 -19.49024112 37.45746185 -19.50060272 32.53598404 C-19.50798551 30.65970934 -19.52240248 28.78344854 -19.54401398 26.90728378 C-19.57311152 24.27625951 -19.57704713 21.64629637 -19.57519531 19.01513672 C-19.58957642 18.2418956 -19.60395752 17.46865448 -19.61877441 16.67198181 C-19.56971282 10.21701259 -17.20675668 6.83791192 -13.00366211 2.18945312 C-8.72825522 -0.26998311 -4.85224158 -0.04180972 0 0 Z " fill="#FF8957" transform="translate(115.12109375,152.46875)"/>
<path d="M0 0 C1.10589478 0.00616333 1.10589478 0.00616333 2.23413086 0.01245117 C3.0352832 0.01438477 3.83643555 0.01631836 4.66186523 0.01831055 C5.49911133 0.03055664 6.33635742 0.04280273 7.19897461 0.05541992 C8.46064453 0.05638672 8.46064453 0.05638672 9.74780273 0.05737305 C15.99624277 0.10268808 15.99624277 0.10268808 17.13647461 1.24291992 C17.23507592 2.64640728 17.26726398 4.05472469 17.26928711 5.46166992 C17.2712207 6.7359082 17.2712207 6.7359082 17.27319336 8.03588867 C17.26932617 8.92920898 17.26545898 9.8225293 17.26147461 10.74291992 C17.26727539 12.08290039 17.26727539 12.08290039 17.27319336 13.44995117 C17.2719043 14.29944336 17.27061523 15.14893555 17.26928711 16.02416992 C17.26815918 16.80856445 17.26703125 17.59295898 17.26586914 18.40112305 C17.13647461 20.24291992 17.13647461 20.24291992 16.13647461 21.24291992 C13.146293 21.36959757 10.18953353 21.42812831 7.19897461 21.43041992 C6.36172852 21.44266602 5.52448242 21.45491211 4.66186523 21.4675293 C3.46013672 21.47042969 3.46013672 21.47042969 2.23413086 21.47338867 C1.49686768 21.47749756 0.75960449 21.48160645 0 21.48583984 C-1.86352539 21.24291992 -1.86352539 21.24291992 -3.86352539 19.24291992 C-4.06209511 16.36949931 -4.14181485 13.61430004 -4.11352539 10.74291992 C-4.12125977 9.95788086 -4.12899414 9.1728418 -4.13696289 8.36401367 C-4.11010786 0.53577326 -4.11010786 0.53577326 0 0 Z " fill="#FF8A58" transform="translate(134.863525390625,85.757080078125)"/>
<path d="M0 0 C0.78503906 0.00773437 1.57007812 0.01546875 2.37890625 0.0234375 C3.55646484 0.01183594 3.55646484 0.01183594 4.7578125 0 C10.62559838 0.02012963 10.62559838 0.02012963 12.87890625 2.2734375 C13.12182617 4.13696289 13.12182617 4.13696289 13.109375 6.37109375 C13.10744141 7.17224609 13.10550781 7.97339844 13.10351562 8.79882812 C13.08514648 10.05469727 13.08514648 10.05469727 13.06640625 11.3359375 C13.06576172 12.17705078 13.06511719 13.01816406 13.06445312 13.88476562 C13.01913809 20.13320566 13.01913809 20.13320566 11.87890625 21.2734375 C8.88872464 21.40011514 5.93196517 21.45864588 2.94140625 21.4609375 C2.10416016 21.47318359 1.26691406 21.48542969 0.40429688 21.49804688 C-0.79743164 21.50094727 -0.79743164 21.50094727 -2.0234375 21.50390625 C-2.76070068 21.50801514 -3.49796387 21.51212402 -4.25756836 21.51635742 C-6.12109375 21.2734375 -6.12109375 21.2734375 -8.12109375 19.2734375 C-8.31966347 16.40001689 -8.39938321 13.64481762 -8.37109375 10.7734375 C-8.37882812 9.98839844 -8.3865625 9.20335938 -8.39453125 8.39453125 C-8.36977533 1.17818136 -7.21634989 0.02475592 0 0 Z " fill="#FF8A58" transform="translate(111.12109375,85.7265625)"/>
<path d="M0 0 C1.27423828 -0.00193359 1.27423828 -0.00193359 2.57421875 -0.00390625 C3.91419922 0.00189453 3.91419922 0.00189453 5.28125 0.0078125 C6.17457031 0.00394531 7.06789062 0.00007813 7.98828125 -0.00390625 C8.83777344 -0.00261719 9.68726563 -0.00132813 10.5625 0 C11.34689453 0.00112793 12.13128906 0.00225586 12.93945312 0.00341797 C14.78125 0.1328125 14.78125 0.1328125 15.78125 1.1328125 C15.8796221 2.46324875 15.91203592 3.79874594 15.9140625 5.1328125 C15.91599609 6.339375 15.91599609 6.339375 15.91796875 7.5703125 C15.91410156 8.4159375 15.91023438 9.2615625 15.90625 10.1328125 C15.91205078 11.40125 15.91205078 11.40125 15.91796875 12.6953125 C15.91667969 13.4996875 15.91539062 14.3040625 15.9140625 15.1328125 C15.91293457 15.8753125 15.91180664 16.6178125 15.91064453 17.3828125 C15.78125 19.1328125 15.78125 19.1328125 14.78125 20.1328125 C13.37776265 20.23141381 11.96944523 20.26360187 10.5625 20.265625 C9.28826172 20.26755859 9.28826172 20.26755859 7.98828125 20.26953125 C6.64830078 20.26373047 6.64830078 20.26373047 5.28125 20.2578125 C4.38792969 20.26167969 3.49460938 20.26554687 2.57421875 20.26953125 C1.72472656 20.26824219 0.87523437 20.26695312 0 20.265625 C-0.78439453 20.26449707 -1.56878906 20.26336914 -2.37695312 20.26220703 C-4.21875 20.1328125 -4.21875 20.1328125 -5.21875 19.1328125 C-5.3171221 17.80237625 -5.34953592 16.46687906 -5.3515625 15.1328125 C-5.35285156 14.3284375 -5.35414063 13.5240625 -5.35546875 12.6953125 C-5.35160156 11.8496875 -5.34773437 11.0040625 -5.34375 10.1328125 C-5.34761719 9.2871875 -5.35148438 8.4415625 -5.35546875 7.5703125 C-5.35417969 6.7659375 -5.35289062 5.9615625 -5.3515625 5.1328125 C-5.35043457 4.3903125 -5.34930664 3.6478125 -5.34814453 2.8828125 C-5.08992722 -0.60945483 -2.99620237 0.00430843 0 0 Z " fill="#FF8957" transform="translate(136.21875,114.8671875)"/>
<path d="M0 0 C1.27423828 -0.00193359 1.27423828 -0.00193359 2.57421875 -0.00390625 C3.91419922 0.00189453 3.91419922 0.00189453 5.28125 0.0078125 C6.17457031 0.00394531 7.06789063 0.00007813 7.98828125 -0.00390625 C8.83777344 -0.00261719 9.68726562 -0.00132813 10.5625 0 C11.34689453 0.00112793 12.13128906 0.00225586 12.93945312 0.00341797 C14.78125 0.1328125 14.78125 0.1328125 15.78125 1.1328125 C15.8796221 2.46324875 15.91203592 3.79874594 15.9140625 5.1328125 C15.91599609 6.339375 15.91599609 6.339375 15.91796875 7.5703125 C15.91410156 8.4159375 15.91023438 9.2615625 15.90625 10.1328125 C15.91205078 11.40125 15.91205078 11.40125 15.91796875 12.6953125 C15.91667969 13.4996875 15.91539063 14.3040625 15.9140625 15.1328125 C15.91293457 15.8753125 15.91180664 16.6178125 15.91064453 17.3828125 C15.78125 19.1328125 15.78125 19.1328125 14.78125 20.1328125 C13.37776265 20.23141381 11.96944523 20.26360187 10.5625 20.265625 C9.28826172 20.26755859 9.28826172 20.26755859 7.98828125 20.26953125 C6.64830078 20.26373047 6.64830078 20.26373047 5.28125 20.2578125 C4.38792969 20.26167969 3.49460937 20.26554687 2.57421875 20.26953125 C1.72472656 20.26824219 0.87523438 20.26695312 0 20.265625 C-0.78439453 20.26449707 -1.56878906 20.26336914 -2.37695312 20.26220703 C-4.21875 20.1328125 -4.21875 20.1328125 -5.21875 19.1328125 C-5.3171221 17.80237625 -5.34953592 16.46687906 -5.3515625 15.1328125 C-5.35285156 14.3284375 -5.35414062 13.5240625 -5.35546875 12.6953125 C-5.35160156 11.8496875 -5.34773438 11.0040625 -5.34375 10.1328125 C-5.34761719 9.2871875 -5.35148437 8.4415625 -5.35546875 7.5703125 C-5.35417969 6.7659375 -5.35289063 5.9615625 -5.3515625 5.1328125 C-5.35043457 4.3903125 -5.34930664 3.6478125 -5.34814453 2.8828125 C-5.08992722 -0.60945483 -2.99620237 0.00430843 0 0 Z " fill="#FF8957" transform="translate(108.21875,114.8671875)"/>
</svg>
